<svg xmlns="http://www.w3.org/2000/svg" version="1.1" xmlns:xlink="http://www.w3.org/1999/xlink" xmlns:svgjs="http://svgjs.com/svgjs" width="1440" height="560" preserveAspectRatio="none" viewBox="0 0 1440 560"><g mask="url(&quot;#SvgjsMask1003&quot;)" fill="none"><path d="M508.04 108.09a28.27 28.27 0 1 0 50.28-25.85z" stroke="rgba(3, 123, 11, 0.34)"></path><path d="M993.5 36.03L1005.42 36.03L1005.42 55.6L993.5 55.6z" fill="rgba(3, 123, 11, 0.34)"></path><path d="M558.41 8.18a17.29 17.29 0 1 0 31.22 14.88z" fill="rgba(211, 183, 20, 0.36)"></path><path d="M50.29 407.01 a27.78 27.78 0 1 0 55.56 0 a27.78 27.78 0 1 0 -55.56 0z" fill="rgba(3, 123, 11, 0.34)"></path><path d="M946.72 314.46L947.76 314.46L947.76 366.57L946.72 366.57z" stroke="rgba(210, 164, 164, 0.36)"></path><path d="M820.71 365.73a23.38 23.38 0 1 0 14.7 44.39z" fill="rgba(210, 164, 164, 0.36)"></path><path d="M126.86 3.54L139.22 3.54L139.22 15.9L126.86 15.9z" stroke="rgba(3, 123, 11, 0.34)"></path><path d="M673.37 178.9a31.35 31.35 0 1 0-26.8-56.68z" stroke="rgba(3, 123, 11, 0.34)"></path><path d="M1105.99 532.71 a5.06 5.06 0 1 0 10.12 0 a5.06 5.06 0 1 0 -10.12 0z" fill="rgba(210, 164, 164, 0.36)"></path><path d="M569.25 47.04L574.22 47.04L574.22 55.7L569.25 55.7z" stroke="rgba(210, 164, 164, 0.36)"></path><path d="M109.82 156.79L148.22 156.79L148.22 195.19L109.82 195.19z" fill="rgba(211, 183, 20, 0.36)"></path><path d="M1242.6 88.58L1254.47 88.58L1254.47 100.45L1242.6 100.45z" fill="rgba(210, 164, 164, 0.36)"></path><path d="M313.66 80L362.29 80L362.29 117.69L313.66 117.69z" stroke="rgba(3, 123, 11, 0.34)"></path><path d="M394.08 526.71 a17.55 17.55 0 1 0 35.1 0 a17.55 17.55 0 1 0 -35.1 0z" stroke="rgba(210, 164, 164, 0.36)"></path><path d="M713.53 52.52L759.02 52.52L759.02 98.01L713.53 98.01z" fill="rgba(3, 123, 11, 0.34)"></path><path d="M354.16 530.18a28.59 28.59 0 1 0-30.23-48.53z" stroke="rgba(211, 183, 20, 0.36)"></path><path d="M1012.29 403.88a11.5 11.5 0 1 0-20 11.36z" fill="rgba(3, 123, 11, 0.34)"></path><path d="M915.12 294.69L933.17 294.69L933.17 312.74L915.12 312.74z" fill="rgba(211, 183, 20, 0.36)"></path><path d="M62.96 198.91 a11.02 11.02 0 1 0 22.04 0 a11.02 11.02 0 1 0 -22.04 0z" fill="rgba(3, 123, 11, 0.34)"></path><path d="M1062.52 75.73L1066.98 75.73L1066.98 98.44L1062.52 98.44z" stroke="rgba(3, 123, 11, 0.34)"></path><path d="M282.91 402.65 a27.64 27.64 0 1 0 55.28 0 a27.64 27.64 0 1 0 -55.28 0z" stroke="rgba(210, 164, 164, 0.36)"></path><path d="M320.33 419.64L376.3 419.64L376.3 475.61L320.33 475.61z" stroke="rgba(3, 123, 11, 0.34)"></path><path d="M612.16 165.57L654.21 165.57L654.21 207.62L612.16 207.62z" fill="rgba(210, 164, 164, 0.36)"></path><path d="M801.47 323.34L815.15 323.34L815.15 337.02L801.47 337.02z" stroke="rgba(3, 123, 11, 0.34)"></path><path d="M773.55 257.25L826.57 257.25L826.57 310.27L773.55 310.27z" fill="rgba(3, 123, 11, 0.34)"></path><path d="M84.17 480.55 a12.13 12.13 0 1 0 24.26 0 a12.13 12.13 0 1 0 -24.26 0z" fill="rgba(210, 164, 164, 0.36)"></path><path d="M1037.38 274.28L1083.58 274.28L1083.58 281.71L1037.38 281.71z" stroke="rgba(3, 123, 11, 0.34)"></path><path d="M570.61 45.34L571.28 45.34L571.28 46.01L570.61 46.01z" stroke="rgba(211, 183, 20, 0.36)"></path><path d="M26.44 509.95L31.37 509.95L31.37 514.88L26.44 514.88z" stroke="rgba(211, 183, 20, 0.36)"></path><path d="M453.96 122.34L469.72 122.34L469.72 131.67L453.96 131.67z" stroke="rgba(210, 164, 164, 0.36)"></path><path d="M143.26 253.27a23.56 23.56 0 1 0-46.22 9.17z" fill="rgba(210, 164, 164, 0.36)"></path><path d="M1232.57 238.09 a41.11 41.11 0 1 0 82.22 0 a41.11 41.11 0 1 0 -82.22 0z" fill="rgba(211, 183, 20, 0.36)"></path><path d="M168.12 484.78a49.98 49.98 0 1 0-52.22-85.24z" stroke="rgba(211, 183, 20, 0.36)"></path></g><defs><mask id="SvgjsMask1003"><rect width="1440" height="560" fill="#ffffff"></rect></mask></defs></svg>